<svg height="24" width="24" xmlns="http://www.w3.org/2000/svg" viewBox="0 0 537.7 537.7" xml:space="preserve"><path d="M260 193c0 5 2 12 19 17 7 3 29 10 29 32 0 14-10 27-24 30v3a7 7 0 1 1-15 0v-3c-14-3-24-16-24-30a7 7 0 1 1 15 0 17 17 0 0 0 33 0c0-6-2-12-19-17-19-7-29-17-29-32s10-27 24-31v-3a7 7 0 1 1 15 0v3c14 4 24 16 24 31a7 7 0 1 1-15 0 17 17 0 0 0-33 0zM538 87v261c0 4-4 8-8 8h-7v43a8 8 0 0 1-9 7l-21-2v47a7 7 0 0 1-9 7L6 356v-1H4l-1-1H2v-1H1v-1a6 6 0 0 1-1-1V87c0-5 3-8 8-8h522c4 0 8 3 8 8zm-86 254c4-37 34-67 71-71V164c-37-3-67-33-71-70H85c-3 37-33 67-70 70v106c37 4 67 34 70 71h367zm-382 0c-3-29-26-52-55-56v56h55zm0-247H15v55c29-3 52-26 55-55zm453 0h-56c4 29 27 52 56 55V94zm-45 308-340-33 340 73v-40zm30-46H159l349 34v-34zm15-15v-56c-29 4-52 27-56 56h56zM347 159c-3 2-4 7-2 10 10 14 16 31 16 48a84 84 0 1 1-36-69 7 7 0 1 0 8-12 99 99 0 1 0 24 24c-2-3-6-4-10-1z"/></svg>